<?xml version="1.0" encoding="UTF-8"?>
<svg version="1.1" xmlns="http://www.w3.org/2000/svg" width="471" height="471">
<path d="M0 0 C2.38671365 0.00028265 4.77342739 0.00012263 7.16014099 -0.0004425 C13.58868908 -0.00072745 20.01721821 0.00512015 26.44576192 0.01213145 C32.49871063 0.01826297 38.55166099 0.01875739 44.60461228 0.01978333 C56.58016172 0.02196278 68.55570429 0.02859264 80.53125 0.03808594 C92.15266893 0.04728884 103.77408597 0.05435553 115.39550781 0.05859375 C116.11389444 0.05885647 116.83228107 0.0591192 117.572437 0.05938988 C121.17698144 0.06069508 124.7815259 0.06195875 128.38607037 0.06320179 C158.2091266 0.0735399 188.03217479 0.09120306 217.85522461 0.11352539 C217.90100057 31.04394331 217.93632132 61.97435215 217.95735527 92.90479597 C217.95985622 96.56909906 217.96244491 100.23340209 217.96508789 103.89770508 C217.96587482 104.99179875 217.96587482 104.99179875 217.96667765 106.10799533 C217.97534407 117.86733697 217.99109295 129.62665874 218.0095302 141.38598865 C218.02833462 153.48175604 218.03936343 165.57751314 218.0434016 177.67329454 C218.04588264 184.45481739 218.051772 191.23629909 218.06668472 198.01780701 C218.08040838 204.41994976 218.08441784 210.82202987 218.08143997 217.22418594 C218.0819836 219.55554166 218.08587195 221.88689979 218.09363556 224.21824265 C218.15496627 243.61070253 217.81907342 263.37916347 213.79272461 282.42602539 C213.58139893 283.44051758 213.37007324 284.45500977 213.15234375 285.50024414 C208.36275321 307.25871722 200.12644398 327.40887566 189.85522461 347.11352539 C189.4854248 347.82814941 189.115625 348.54277344 188.73461914 349.27905273 C180.75115446 364.50958639 170.26780609 378.30787792 158.85522461 391.11352539 C158.38697266 391.64349121 157.9187207 392.17345703 157.4362793 392.71948242 C152.41568321 398.38519259 147.34260544 403.85602398 141.51147461 408.71118164 C139.80899854 410.10052835 139.80899854 410.10052835 138.26147461 411.79711914 C136.85522461 413.11352539 136.85522461 413.11352539 134.85522461 413.11352539 C134.52522461 414.10352539 134.19522461 415.09352539 133.85522461 416.11352539 C131.898281 417.50928664 129.88927552 418.83273866 127.85522461 420.11352539 C126.25586668 421.25959995 124.65668246 422.40596186 123.06469727 423.56225586 C76.6940023 457.1647846 26.29075664 469.52884185 -30.33789062 469.34057617 C-32.76489762 469.3400103 -35.19190495 469.34033203 -37.61891174 469.34146118 C-43.45853029 469.34197033 -49.29808164 469.33341321 -55.13768493 469.32058586 C-61.94733123 469.30613746 -68.75696876 469.30328254 -75.56662823 469.30100952 C-87.70524011 469.29665864 -99.84382474 469.28342129 -111.98242188 469.2644043 C-123.75683457 469.24597732 -135.53123981 469.23185443 -147.30566406 469.22338867 C-148.03442233 469.22286322 -148.76318061 469.22233778 -149.51402246 469.22179641 C-153.17087935 469.21918587 -156.8277363 469.21665857 -160.48459327 469.2141726 C-190.70467347 469.19352151 -220.92472061 469.15821696 -251.14477539 469.11352539 C-251.19054267 438.16608569 -251.22586768 407.21865506 -251.24690605 376.27118948 C-251.24940703 372.60559762 -251.25199572 368.94000582 -251.25463867 365.27441406 C-251.25516329 364.54475597 -251.25568791 363.81509787 -251.25622843 363.06332893 C-251.26489693 351.29684522 -251.28064698 339.53038134 -251.29908098 327.76390933 C-251.31787957 315.66249671 -251.328913 303.56109437 -251.33295238 291.45966774 C-251.33543438 284.6742644 -251.34133063 277.88890216 -251.3562355 271.10351372 C-251.36994974 264.69891176 -251.37397046 258.29437241 -251.37099075 251.88975716 C-251.37153479 249.55636885 -251.37542888 247.22297814 -251.38318634 244.88960266 C-251.60039854 176.09959473 -229.37733778 115.56705642 -180.51977539 66.23852539 C-175.03395846 60.79761394 -169.24328237 55.86061006 -163.14477539 51.11352539 C-162.17411133 50.3259082 -161.20344727 49.53829102 -160.20336914 48.72680664 C-133.8527968 27.71890353 -103.46518956 14.79442571 -71.14477539 6.11352539 C-69.88665039 5.77321289 -68.62852539 5.43290039 -67.33227539 5.08227539 C-45.44695305 -0.38905519 -22.40247465 -0.0374983 0 0 Z " fill="#FCFCFC" transform="translate(251.144775390625,-0.113525390625)"/>
<path d="M0 0 C3.69967141 1.21830665 7.29661108 2.49193233 10.86328125 4.05859375 C12.19456055 4.63770508 12.19456055 4.63770508 13.55273438 5.22851562 C15.3813108 6.02956927 17.20944199 6.8316401 19.03710938 7.63476562 C23.85341694 9.7277525 28.6400227 11.59459956 33.64485168 13.18199158 C36.08998485 14.03125424 38.41616382 15.02629876 40.7746582 16.09155273 C41.57031693 16.44958481 42.36597565 16.80761688 43.18574524 17.17649841 C44.08380135 17.5841317 44.08380135 17.5841317 45 18 C45.00142502 19.2306015 45.00285004 20.461203 45.00431824 21.72909546 C45.02102033 33.35191517 45.06389239 44.9743862 45.13209057 56.5970211 C45.16631534 62.57173005 45.1914636 68.5461845 45.19555664 74.52099609 C45.19984915 80.29192399 45.22839177 86.06227823 45.27343178 91.83302689 C45.2863762 94.02968626 45.29072536 96.22641439 45.28615379 98.42310715 C45.28122622 101.51104688 45.30743702 104.59732383 45.34057617 107.68505859 C45.32763771 109.03374023 45.32763771 109.03374023 45.31443787 110.40966797 C45.44617907 117.7791044 47.61004172 124.48559374 52.81895733 129.88573265 C57.30636108 133.71870101 62.36200708 135.31816278 67.9375 137.01171875 C71.79050014 138.25509762 75.34820942 139.92220269 79.0078125 141.640625 C86.15563566 144.88793891 93.5065963 147.71606611 100.87109375 150.4296875 C105.43884506 152.13355315 109.89867714 154.07146743 114.375 156 C121.68351135 159.13800389 121.68351135 159.13800389 129.25 161.5625 C134.05104505 162.85985641 138.37585569 165.00912101 142.83203125 167.16772461 C148.82012276 170.01937426 154.97196667 172.2735084 161.21240234 174.50585938 C166.48155033 176.40236561 171.53916161 178.54859544 176.59765625 180.95703125 C179.04046887 182.01756941 181.43094437 182.74413553 184 183.4375 C198.13104903 187.44614941 210.34573458 196.90728272 217.5078125 209.69140625 C220.06503599 214.71087065 222.12495724 218.93321572 222.1328125 224.640625 C222.13410156 225.54683594 222.13539063 226.45304688 222.13671875 227.38671875 C222.13285156 228.33160156 222.12898437 229.27648437 222.125 230.25 C222.12886719 231.17941406 222.13273438 232.10882813 222.13671875 233.06640625 C222.11540463 248.13549196 216.69892902 258.28522072 206 269 C200.24155654 273.41358862 194.0658532 276.61216086 187.4375 279.5 C186.5705249 279.88454346 185.7035498 280.26908691 184.81030273 280.6652832 C178.81140441 283.29471869 172.74870606 285.67518125 166.58984375 287.90014648 C162.42363584 289.41757997 158.43476152 291.14653767 154.4375 293.0625 C149.98403271 295.17721392 145.57069705 296.87338137 140.875 298.375 C134.04151997 300.56340786 127.50427165 303.22966893 120.91210938 306.0559082 C115.41744467 308.41116175 109.88612628 310.61406447 104.29296875 312.7265625 C100.39689186 314.23323043 96.5434993 315.83166525 92.6875 317.4375 C86.29619512 320.09867405 79.86320427 322.60462766 73.35229492 324.95874023 C70.3698739 326.04975555 67.56110517 327.2244289 64.73046875 328.671875 C62 330 62 330 59 330 C59 314.16 59 298.32 59 282 C69.48409062 277.58564606 79.73857311 273.2805257 90.37109375 269.36328125 C94.59192936 267.77762826 98.73262757 266.03751704 102.8828125 264.27734375 C106.51778217 262.7878261 110.18979927 261.4216805 113.875 260.0625 C120.1577443 257.7421683 126.29769216 255.17918887 132.4375 252.5 C136.25705473 250.89176643 140.11140856 249.4303829 144 248 C150.36155405 245.65869052 156.58336666 243.10933044 162.78515625 240.3671875 C165.76222615 239.10111889 168.75461569 238.04965674 171.8125 237 C174.1596622 236.1711314 174.1596622 236.1711314 176 235 C177.30110818 231.88904363 177.30110818 231.88904363 177 229 C175.80375 228.62875 174.6075 228.2575 173.375 227.875 C169.14188301 226.47286346 165.08700731 224.78197065 161 223 C156.4623414 221.02266911 151.97651358 219.25978987 147.26171875 217.76953125 C142.40525394 216.11715894 137.71750602 214.00820785 133 212 C126.84709121 209.39995193 120.68569852 206.86338478 114.4375 204.5 C110.31348397 202.93503926 106.3035262 201.25246867 102.3125 199.375 C99.04406643 197.85316488 95.91770997 196.6199112 92.4375 195.6875 C87.47688841 194.30736164 82.92339861 192.25343039 78.25 190.125 C72.9530365 187.71343619 67.70076831 185.44844518 62.1875 183.5625 C47.69781832 178.51894375 33.61567404 173.29091122 22 163 C21.35417969 162.4740625 20.70835937 161.948125 20.04296875 161.40625 C13.04491691 155.21384295 6.86711486 144.88957306 4 136 C4 134.68 4 133.36 4 132 C3.34 132 2.68 132 2 132 C0.09122351 124.77689739 -0.27498211 118.13826179 -0.22705078 110.68725586 C-0.22748886 108.88575073 -0.22748886 108.88575073 -0.22793579 107.04785156 C-0.22678801 103.78188976 -0.21681498 100.51610335 -0.20278788 97.25017619 C-0.1902149 93.82691265 -0.18910487 90.40364501 -0.18673706 86.98036194 C-0.18054147 80.51013171 -0.16415689 74.03996973 -0.14403808 67.56976944 C-0.12161899 60.19848934 -0.11067059 52.82720583 -0.10064721 45.45590007 C-0.07978878 30.30389547 -0.0446505 15.15195459 0 0 Z " fill="#101010" transform="translate(123,58)"/>
<path d="M0 0 C2.974213 0.74355325 5.49992069 1.53151614 8.30859375 2.671875 C9.13109619 3.00380859 9.95359863 3.33574219 10.80102539 3.67773438 C12.10608032 4.20850586 12.10608032 4.20850586 13.4375 4.75 C19.12859659 7.04861108 24.8194714 9.33337939 30.5625 11.5 C36.81901387 13.87957966 42.97102089 16.49312379 49.11547852 19.14648438 C52.89918223 20.76458144 56.66515143 22.2573584 60.58203125 23.5234375 C64.84530373 24.90308629 68.86708683 26.63639471 72.9375 28.5 C77.30297471 30.46018473 81.5594754 32.299624 86.1875 33.5625 C91.2327613 34.93924352 95.75267275 37.15924013 100.46484375 39.40234375 C104.1575927 41.07122145 107.88095317 42.49441869 111.6875 43.875 C130.76365918 50.86315779 150.1737925 58.10194266 159.8125 77.30078125 C165.81823181 90.9519677 163.84795246 106.34349107 159 120 C158.34 120 157.68 120 157 120 C156.814375 120.66 156.62875 121.32 156.4375 122 C151.68071485 131.9272038 142.12500603 138.53520506 132.94140625 143.99609375 C126.28263477 146.26874218 120.37972439 143.61431388 114.375 140.75 C108.02400082 137.83663596 101.66634346 135.40508616 95.05859375 133.125 C92.43928647 132.16157663 90.0319344 131.10172487 87.5625 129.8125 C84.04753588 128.02418492 80.78502502 127.06246316 77 126 C73.96318819 124.74439512 70.9771045 123.39066559 68 122 C70.75936799 118.50057163 74.67258459 117.27128777 78.6875 115.6875 C79.43990967 115.38408691 80.19231934 115.08067383 80.9675293 114.76806641 C86.71006449 112.46817296 92.49436365 110.28291724 98.2980957 108.14282227 C103.51481191 106.21213384 108.63753569 104.09436465 113.7421875 101.8828125 C116 101 116 101 118 101 C117.97474816 98.08961458 117.97474816 98.08961458 117 95 C112.68473433 92.4527491 108.01187863 90.81906069 103.3125 89.125 C97.509808 86.99941318 91.9028042 84.64026132 86.3046875 82.015625 C83.28435546 80.68463122 80.17569384 79.89142283 77 79 C72.96603418 77.41354268 68.9852939 75.70446439 65 74 C58.42670074 71.19943559 51.82661525 68.53761924 45.125 66.0625 C38.85168365 63.74529563 32.72043364 61.18726829 26.58984375 58.51171875 C21.97264726 56.56737159 17.2962698 54.81226319 12.59179688 53.09179688 C8.31563051 51.52284375 4.20002176 49.80000932 0 48 C0 32.16 0 16.32 0 0 Z " fill="#171717" transform="translate(182,82)"/>
<path d="M0 0 C4.40931098 1.12394201 8.41631339 2.84714346 12.57421875 4.67578125 C18.56695951 7.25981231 24.54623541 9.70803008 30.70703125 11.8671875 C35.25359464 13.55723657 39.67766469 15.53618955 44.125 17.46875 C47.8420287 19.0579467 51.584027 20.49431222 55.38671875 21.86328125 C52.24883077 24.47315923 49.20976891 25.84211832 45.38671875 27.23828125 C43.66582031 27.88410156 43.66582031 27.88410156 41.91015625 28.54296875 C40.74742187 28.97867187 39.5846875 29.414375 38.38671875 29.86328125 C26.93480946 33.71402248 26.93480946 33.71402248 18.3359375 41.62890625 C17.37863084 43.7087569 17.37863084 43.7087569 16.38671875 46.86328125 C16.05671875 47.85328125 15.72671875 48.84328125 15.38671875 49.86328125 C15.28738797 51.24643915 15.24067937 52.63376499 15.22850037 54.02043152 C15.21381714 55.28874062 15.21381714 55.28874062 15.19883728 56.58267212 C15.19308182 57.50696014 15.18732635 58.43124817 15.18139648 59.38354492 C15.17149689 60.35934006 15.16159729 61.33513519 15.15139771 62.34049988 C15.11977204 65.57072511 15.09502098 68.80096506 15.0703125 72.03125 C15.0497439 74.26899094 15.02874745 76.50672799 15.00733948 78.74446106 C14.95210912 84.63810068 14.90270405 90.53177542 14.85449219 96.42547607 C14.80428424 102.43797944 14.74859448 108.45043172 14.69335938 114.46289062 C14.58576599 126.26297721 14.4843236 138.06310812 14.38671875 149.86328125 C13.4946875 150.18941406 12.60265625 150.51554688 11.68359375 150.8515625 C10.513125 151.28855469 9.34265625 151.72554687 8.13671875 152.17578125 C6.39648438 152.81966797 6.39648438 152.81966797 4.62109375 153.4765625 C1.77015233 154.69888642 -0.21256856 155.95576027 -2.61328125 157.86328125 C-4.56971412 158.53743885 -6.55334649 159.13506652 -8.55078125 159.67578125 C-14.74139054 161.47553983 -20.24541013 163.86495001 -26.03125 166.69140625 C-28.61328125 167.86328125 -28.61328125 167.86328125 -30.61328125 167.86328125 C-30.68356453 152.03334638 -30.7363636 136.20345409 -30.76871777 120.37340164 C-30.78414401 113.0221559 -30.80515165 105.67100747 -30.83959961 98.31982422 C-30.8696327 91.90768099 -30.88888704 85.49560829 -30.89554673 79.08339667 C-30.89943562 75.6925557 -30.90848478 72.30191637 -30.93047142 68.91114044 C-30.95238218 65.11284128 -30.95524241 61.31495417 -30.95385742 57.51660156 C-30.96464325 56.40960403 -30.97542908 55.30260651 -30.98654175 54.1620636 C-30.94586268 43.79068977 -29.14570089 34.68057505 -23.61328125 25.86328125 C-23.18015625 24.74953125 -22.74703125 23.63578125 -22.30078125 22.48828125 C-19.0070689 15.41289917 -8.71961555 -0.45618318 0 0 Z " fill="#121212" transform="translate(153.61328125,244.13671875)"/>
<path d="M0 0 C0.80299307 2.29602864 1.19693127 3.50886536 0.27490234 5.80834961 C-0.31363525 6.72112671 -0.31363525 6.72112671 -0.9140625 7.65234375 C-1.34307861 8.33973633 -1.77209473 9.02712891 -2.21411133 9.73535156 C-2.67970459 10.46206055 -3.14529785 11.18876953 -3.625 11.9375 C-8.0109259 19.07232453 -11.24574719 26.07653359 -14 34 C-14.85057593 36.12643982 -15.70480216 38.25142281 -16.5625 40.375 C-19.29676462 47.44428543 -21.18039969 54.6504412 -23 62 C-23.66 62 -24.32 62 -25 62 C-24.96003906 62.9590625 -24.92007812 63.918125 -24.87890625 64.90625 C-24.88027173 70.35725002 -26.25054735 75.57256221 -27.49023438 80.85546875 C-28.85602359 87.34172588 -29.27813748 93.76246631 -29.54795837 100.3662262 C-29.59009144 101.37494453 -29.6322245 102.38366286 -29.67563432 103.42294842 C-30.119219 114.85877145 -30.17537311 126.29110441 -30.20532227 137.73413086 C-30.21506825 140.14989917 -30.22521522 142.56566589 -30.23572445 144.98143101 C-30.26245945 151.37590855 -30.28379913 157.77039277 -30.30391693 164.1648941 C-30.32373166 170.19364261 -30.34855125 176.22236677 -30.3729248 182.25109863 C-30.44107432 199.81321388 -30.50131743 217.3753591 -30.5625 234.9375 C-30.706875 274.228125 -30.85125 313.51875 -31 354 C49.52 354 130.04 354 213 354 C213 354.33 213 354.66 213 355 C131.82 355 50.64 355 -33 355 C-33.04125 314.884375 -33.0825 274.76875 -33.125 233.4375 C-33.14320801 220.8039624 -33.16141602 208.1704248 -33.18017578 195.15405273 C-33.18920898 179.6427002 -33.18920898 179.6427002 -33.19088745 172.36488342 C-33.19273928 167.31754268 -33.20018821 162.27024467 -33.21115112 157.22291565 C-33.22500319 150.75846492 -33.22895782 144.29407514 -33.22614455 137.82961094 C-33.22673169 135.47357691 -33.23061748 133.11754046 -33.23843026 130.76151931 C-33.38538959 84.2334608 -24.9755228 39.8814426 0 0 Z " fill="#776E6F" transform="translate(33,114)"/>
<path d="M0 0 C0 0.33 0 0.66 0 1 C-0.59723877 1.09498779 -1.19447754 1.18997559 -1.80981445 1.2878418 C-24.93708434 5.01376681 -50.11834093 9.53504972 -70.90234375 20.8984375 C-73.13741453 22.07216182 -75.38266175 22.9385228 -77.75 23.8125 C-96.37239421 31.14596997 -113.67848892 44.22838639 -128.41650391 57.56787109 C-129.9682265 58.97126374 -131.53504047 60.35588651 -133.10546875 61.73828125 C-147.30314464 74.3513442 -159.49318587 88.49590006 -169.4609375 104.67578125 C-171.36605756 107.55280266 -173.41618739 109.7293768 -176 112 C-174.40251825 107.30683328 -171.86445919 103.53843166 -169.0625 99.5 C-168.33377686 98.44594971 -168.33377686 98.44594971 -167.59033203 97.37060547 C-162.79808731 90.54416475 -157.52802735 84.23653756 -152 78 C-150.84177734 76.67548828 -150.84177734 76.67548828 -149.66015625 75.32421875 C-141.12195845 65.67560507 -132.12879098 56.96615723 -122 49 C-121.02546875 48.20851562 -120.0509375 47.41703125 -119.046875 46.6015625 C-87.21561079 21.24852041 -41.38334697 -0.86215306 0 0 Z " fill="#311F22" transform="translate(210,2)"/>
<path d="M0 0 C0.80299307 2.29602864 1.19693127 3.50886536 0.27490234 5.80834961 C-0.11745605 6.41686768 -0.50981445 7.02538574 -0.9140625 7.65234375 C-1.34307861 8.33973633 -1.77209473 9.02712891 -2.21411133 9.73535156 C-2.67970459 10.46206055 -3.14529785 11.18876953 -3.625 11.9375 C-8.0109259 19.07232453 -11.24574719 26.07653359 -14 34 C-14.85057593 36.12643982 -15.70480216 38.25142281 -16.5625 40.375 C-19.29676462 47.44428543 -21.18039969 54.6504412 -23 62 C-23.66 62 -24.32 62 -25 62 C-24.9484375 62.87785156 -24.896875 63.75570312 -24.84375 64.66015625 C-24.84375 70.68444418 -26.31331015 76.55857434 -27.5 82.4375 C-27.73847656 83.64599609 -27.97695313 84.85449219 -28.22265625 86.09960938 C-28.8092211 89.06762752 -29.4018333 92.03430221 -30 95 C-30.33 95 -30.66 95 -31 95 C-32.73533735 63.18548198 -16.54489612 26.41923976 0 0 Z " fill="#574044" transform="translate(33,114)"/>
<path d="M0 0 C0.99 0.33 1.98 0.66 3 1 C2.03513672 1.76570313 2.03513672 1.76570313 1.05078125 2.546875 C-18.29503015 18.11183596 -35.388059 35.45558748 -48.4609375 56.67578125 C-50.36605756 59.55280266 -52.41618739 61.7293768 -55 64 C-53.40251825 59.30683328 -50.86445919 55.53843166 -48.0625 51.5 C-47.57668457 50.7972998 -47.09086914 50.09459961 -46.59033203 49.37060547 C-41.79808731 42.54416475 -36.52802735 36.23653756 -31 30 C-30.22785156 29.11699219 -29.45570312 28.23398438 -28.66015625 27.32421875 C-20.11308742 17.66558033 -11.0871258 9.03674814 -1 1 C-0.67 0.67 -0.34 0.34 0 0 Z " fill="#3D272D" transform="translate(89,50)"/>
<path d="M0 0 C-0.33 0.99 -0.66 1.98 -1 3 C-1.11349848 4.45706917 -1.17601475 5.91844959 -1.20532227 7.37963867 C-1.22526749 8.26032516 -1.24521271 9.14101166 -1.26576233 10.04838562 C-1.28247482 10.99534805 -1.29918732 11.94231049 -1.31640625 12.91796875 C-1.33718735 13.89034988 -1.35796844 14.86273102 -1.37937927 15.86457825 C-1.44478748 18.97214665 -1.50371929 22.07979985 -1.5625 25.1875 C-1.60569351 27.29362858 -1.64930807 29.39974856 -1.69335938 31.50585938 C-1.80045999 36.67048591 -1.90175219 41.83519778 -2 47 C0.475 46.505 0.475 46.505 3 46 C-0.625 49 -0.625 49 -4 49 C-4 33.16 -4 17.32 -4 1 C-2 0 -2 0 0 0 Z " fill="#4D4D4D" transform="translate(186,339)"/>
<path d="M0 0 C0.66 0 1.32 0 2 0 C1.48594831 4.96916636 0.76615118 9.29026351 -1 14 C-1.66 14 -2.32 14 -3 14 C-2.9484375 14.87785156 -2.896875 15.75570312 -2.84375 16.66015625 C-2.84375 22.68444418 -4.31331015 28.55857434 -5.5 34.4375 C-5.73847656 35.64599609 -5.97695312 36.85449219 -6.22265625 38.09960938 C-6.8092211 41.06762752 -7.4018333 44.03430221 -8 47 C-8.33 47 -8.66 47 -9 47 C-9.87617672 30.93676014 -4.60824481 15.18417784 0 0 Z " fill="#57484A" transform="translate(11,162)"/>
<path d="M0 0 C3.67561033 3.67561033 4.1198262 7.91685259 4.23046875 12.93359375 C4.22651184 14.76828081 4.2119261 16.60297128 4.1875 18.4375 C4.18685547 19.35337891 4.18621094 20.26925781 4.18554688 21.21289062 C4.09290893 35.55118595 4.09290893 35.55118595 0 40 C0.14363527 38.62476865 0.29003517 37.24982598 0.4375 35.875 C0.51871094 35.10929687 0.59992188 34.34359375 0.68359375 33.5546875 C0.90569623 31.76141559 1.19148004 29.97543887 1.5234375 28.19921875 C2.08429082 24.43414607 2.18395462 20.73460106 2.1875 16.9375 C2.19974609 16.24333984 2.21199219 15.54917969 2.22460938 14.83398438 C2.23635072 10.71277227 1.64278605 7.74659111 0 4 C0 2.68 0 1.36 0 0 Z " fill="#6E6E6E" transform="translate(341,270)"/>
<path d="M0 0 C0.95439263 2.54167161 1.14579893 3.64239346 0.10375977 6.19824219 C-0.36231689 6.97329102 -0.82839355 7.74833984 -1.30859375 8.546875 C-1.80810547 9.39121094 -2.30761719 10.23554687 -2.82226562 11.10546875 C-3.35529297 11.97816406 -3.88832031 12.85085937 -4.4375 13.75 C-4.96666016 14.63816406 -5.49582031 15.52632812 -6.04101562 16.44140625 C-7.34977791 18.63446737 -8.6696404 20.81999632 -10 23 C-11 20 -11 20 -10.21142578 17.93115234 C-9.7936084 17.15723145 -9.37579102 16.38331055 -8.9453125 15.5859375 C-8.49542969 14.74289063 -8.04554687 13.89984375 -7.58203125 13.03125 C-7.10121094 12.1546875 -6.62039062 11.278125 -6.125 10.375 C-5.65191406 9.49070312 -5.17882812 8.60640625 -4.69140625 7.6953125 C-1.18851225 1.18851225 -1.18851225 1.18851225 0 0 Z " fill="#49353B" transform="translate(33,114)"/>
<path d="M0 0 C0.99 0.33 1.98 0.66 3 1 C1.25084555 2.43852875 -0.49935795 3.87578198 -2.25 5.3125 C-3.71179688 6.51326172 -3.71179688 6.51326172 -5.203125 7.73828125 C-7.4366262 9.54442258 -9.68687263 11.29819915 -12 13 C-12 12.01 -12 11.02 -12 10 C-9.62890625 7.7734375 -9.62890625 7.7734375 -6.5625 5.375 C-5.55316406 4.57835937 -4.54382813 3.78171875 -3.50390625 2.9609375 C-2.67761719 2.31382813 -1.85132812 1.66671875 -1 1 C-0.67 0.67 -0.34 0.34 0 0 Z " fill="#483234" transform="translate(89,50)"/>
<path d="M0 0 C-3.00950123 1.61725534 -5.97103608 2.67582623 -9.25 3.625 C-10.58804688 4.01558594 -10.58804688 4.01558594 -11.953125 4.4140625 C-12.62859375 4.60742188 -13.3040625 4.80078125 -14 5 C-13.67 4.01 -13.34 3.02 -13 2 C-8.56971812 0.34950283 -4.70949382 -0.22973141 0 0 Z " fill="#4D3F41" transform="translate(175,9)"/>
<path d="M0 0 C0 0.99 0 1.98 0 3 C0.99 3.66 1.98 4.32 3 5 C0.69 4.67 -1.62 4.34 -4 4 C-4 3.01 -4 2.02 -4 1 C-2 0 -2 0 0 0 Z " fill="#5A5A5A" transform="translate(255,201)"/>
</svg>
